<?xml version="1.0" standalone="no"?>
<!DOCTYPE svg PUBLIC "-//W3C//DTD SVG 20010904//EN"
 "http://www.w3.org/TR/2001/REC-SVG-20010904/DTD/svg10.dtd">
<svg version="1.0" xmlns="http://www.w3.org/2000/svg"
 width="100.000000pt" height="100.000000pt" viewBox="0 0 100.000000 100.000000"
 preserveAspectRatio="xMidYMid meet">
<metadata>
Created by potrace 1.11, written by Peter Selinger 2001-2013
</metadata>
<g transform="translate(0.000000,100.000000) scale(0.100000,-0.100000)"
fill="#000000" stroke="none">
<path d="M414 979 c-5 -9 -1 -40 13 -99 4 -18 16 -137 16 -165 0 -18 -8 -75
-16 -115 -14 -73 -109 -83 -120 -12 -2 12 -6 24 -8 27 -3 3 -4 25 -3 50 3 48
-6 55 -38 31 -40 -30 -58 -123 -46 -229 2 -21 1 -40 -3 -42 -8 -6 -59 59 -59
75 0 8 -6 8 -20 0 -11 -6 -18 -15 -15 -21 4 -5 1 -9 -5 -9 -6 0 -8 -11 -6 -25
3 -14 0 -25 -5 -25 -6 0 -6 -7 1 -19 6 -12 6 -22 1 -25 -6 -4 -5 -19 1 -39 13
-39 18 -55 17 -63 0 -3 7 -16 15 -30 9 -13 14 -24 10 -24 -3 0 6 -15 20 -32
50 -63 107 -114 154 -138 26 -13 49 -27 52 -30 7 -7 40 -11 132 -15 77 -3 157
10 169 28 3 5 9 8 13 8 16 -3 68 32 107 73 59 61 71 76 62 76 -4 0 -3 4 2 8
16 11 63 112 71 152 9 48 6 130 -6 145 -5 6 -8 14 -5 17 3 3 -1 11 -9 17 -15
13 -45 4 -44 -12 0 -18 -25 -66 -38 -71 -10 -4 -14 3 -15 22 -1 35 -14 107
-19 107 -1 0 -3 10 -6 22 -4 21 -31 80 -66 146 -14 24 -82 110 -114 141 -34
34 -75 66 -84 66 -5 0 -10 5 -10 11 0 5 -4 8 -9 5 -5 -4 -11 -2 -13 4 -4 14
-66 21 -74 9z"/>
</g>
</svg>
